<svg xmlns="http://www.w3.org/2000/svg" xmlns:xlink="http://www.w3.org/1999/xlink" width="177" height="38" viewBox="0 0 177 38">
    <defs>
        <path id="a" d="M68.369 29.22h8.57c.592 0 1.078.447 1.14 1.021l.007.125v2.957c0 .59-.447 1.076-1.021 1.138l-.125.007h-1.46v2.242c0 .59-.446 1.076-1.02 1.138l-.125.007h-3.361a1.146 1.146 0 0 1-1.14-1.02l-.007-.125v-2.242h-1.458c-.591 0-1.078-.446-1.14-1.02l-.007-.125v-2.957c0-.59.447-1.076 1.022-1.138l.125-.007h8.57zM20.242 9.13c.633 0 1.147.513 1.147 1.145v7.461l.004.136a2.682 2.682 0 0 0 2.678 2.51h2.527c1.481 0 2.682-1.2 2.682-2.68v-7.427c0-.631.513-1.144 1.146-1.144h3.363c.632 0 1.145.513 1.145 1.144v7.427c0 .938-.155 1.839-.441 2.68h1.564c1.425 0 2.59-1.11 2.678-2.51l.005-.17v-7.427c0-.59.447-1.075 1.02-1.137l.125-.007h3.363c.59 0 1.076.447 1.139 1.02l.006.124v7.427c0 4.514-3.595 8.188-8.081 8.323l-.255.004h-1.426a2.102 2.102 0 0 1-1.562-.696l-.114-.138L32.051 24a8.31 8.31 0 0 1-5.454 2.028h-2.526c-.938 0-1.84-.154-2.682-.44v.577c0 4.598-3.732 8.326-8.336 8.326H8.527c-4.604 0-8.336-3.728-8.336-8.326V15.9c0-.632.514-1.145 1.147-1.145h3.36c.633 0 1.146.513 1.146 1.145v10.264c0 1.48 1.202 2.68 2.683 2.68h4.526c1.481 0 2.683-1.2 2.683-2.68l-.001-8.398v-7.492c0-.632.514-1.145 1.147-1.145h3.36zm97.939-5.647h6.957c4.519 0 8.198 3.59 8.332 8.071l.004.255v8.573h11.057c1.425 0 2.59-1.11 2.678-2.51l.005-.17v-7.427c0-.59.446-1.075 1.02-1.137l.125-.007h3.363c.59 0 1.076.447 1.139 1.02l.006.124v7.427c0 4.514-3.595 8.188-8.081 8.323l-.255.004h-8.114a2.101 2.101 0 0 1-1.562-.696l-.113-.138-1.268-1.675v1.366c0 .59-.446 1.074-1.019 1.136l-.124.006h-17.37l.002.115c0 4.598-3.733 8.326-8.337 8.326H96.141c-4.604 0-8.336-3.728-8.336-8.326V15.898c0-.631.513-1.143 1.145-1.143h3.363c.633 0 1.145.512 1.145 1.143v10.244c0 1.48 1.201 2.68 2.683 2.68h10.485c1.482 0 2.683-1.2 2.683-2.68v-.115h-4.005a1.146 1.146 0 0 1-1.14-1.02l-.007-.125v-3.356c0-.59.447-1.076 1.022-1.138l.125-.007h22.517v-8.573a2.681 2.681 0 0 0-2.514-2.674l-.17-.006h-10.586a.84.84 0 0 1-.73-1.255l.06-.09 2.624-3.468c.361-.477.907-.775 1.497-.826l.179-.007h6.957zm1.38 25.739h3.361c.591 0 1.078.446 1.14 1.02l.007.125v2.957c0 .59-.447 1.076-1.022 1.138l-.125.007h-3.36a1.146 1.146 0 0 1-1.14-1.02l-.007-.125v-2.957c0-.59.447-1.076 1.021-1.138l.125-.007h3.361zm20.55 0h8.572c.59 0 1.077.446 1.14 1.02l.006.125v2.957c0 .59-.447 1.076-1.021 1.138l-.125.007h-8.571c-.591 0-1.078-.446-1.14-1.02l-.007-.125v-2.957c0-.59.448-1.076 1.022-1.138l.125-.007h8.571zM66.409 0c.632 0 1.145.511 1.145 1.143V17.7c0 .938-.155 1.839-.44 2.68h8.735c1.425 0 2.59-1.11 2.678-2.51l.005-.17v-7.427c0-.59.447-1.075 1.02-1.137l.125-.007h3.363c.59 0 1.077.447 1.139 1.02l.007.124v7.427c0 4.514-3.596 8.188-8.082 8.323l-.255.004h-8.572a2.101 2.101 0 0 1-1.562-.696l-.113-.138-.915-1.21a8.31 8.31 0 0 1-5.47 2.043H47.883a1.145 1.145 0 0 1-1.145-1.143v-3.36c0-.631.513-1.143 1.145-1.143h11.335c1.482 0 2.683-1.2 2.683-2.68V1.144C61.9.512 62.412 0 63.045 0h3.363zm101.256 3.48c4.604 0 8.336 3.729 8.336 8.327V17.7c0 4.599-3.732 8.326-8.336 8.326h-10.57a1.145 1.145 0 0 1-1.146-1.143v-3.36c0-.63.513-1.143 1.145-1.143h10.57c1.482 0 2.684-1.2 2.684-2.68v-5.893c0-1.48-1.202-2.68-2.683-2.68h-10.57a1.145 1.145 0 0 1-1.146-1.143v-3.36c0-.631.513-1.143 1.145-1.143h10.57zM46.908 0h3.643a1.29 1.29 0 0 1 1.2.814l.042.125 4.122 14.614a.941.941 0 0 1-.792 1.19l-.115.007h-3.633a1.317 1.317 0 0 1-1.224-.831l-.043-.128-4.114-14.586a.949.949 0 0 1 .798-1.198L46.908 0h3.643z"/>
    </defs>
    <g fill="none" fill-rule="evenodd" transform="translate(1)">
        <mask id="b" fill="#fff">
            <use xlink:href="#a"/>
        </mask>
        <use fill="#941b80" fill-opacity="0" xlink:href="#a"/>
        <g fill="#941b80" mask="url(#b)">
            <path d="M-1 0h177v38H-1z"/>
        </g>
    </g>
</svg>
