<svg xmlns="http://www.w3.org/2000/svg" xmlns:xlink="http://www.w3.org/1999/xlink" width="180" height="135" viewBox="0 0 180 135">
    <defs>
        <linearGradient id="a" x1="85.573%" x2="0%" y1="49.996%" y2="50.005%">
            <stop offset="0%" stop-color="#A1A3A8"/>
            <stop offset="100%" stop-color="#C1C3C7"/>
        </linearGradient>
        <filter id="b" width="104%" height="486.7%" x="-2%" y="-193.3%" filterUnits="objectBoundingBox">
            <feGaussianBlur in="SourceGraphic" stdDeviation=".581"/>
        </filter>
        <linearGradient id="c" x1="50%" x2="59.521%" y1="0%" y2="100%">
            <stop offset="0%" stop-color="#EAEAEA"/>
            <stop offset="13.486%" stop-color="#D7D7D7"/>
            <stop offset="100%" stop-color="#EAEAEA"/>
        </linearGradient>
        <linearGradient id="d" x1="30.515%" x2="30.393%" y1="100%" y2="0%">
            <stop offset="0%" stop-color="#EF394E"/>
            <stop offset="13.805%" stop-color="#F27484"/>
            <stop offset="89.547%" stop-color="#EF5662"/>
            <stop offset="100%" stop-color="#EF394E"/>
        </linearGradient>
        <linearGradient id="f" x1="79.844%" x2="30.726%" y1="6.093%" y2="65.449%">
            <stop offset="0%" stop-color="#FEAFB5" stop-opacity=".399"/>
            <stop offset="100%" stop-color="#A01B2A" stop-opacity=".494"/>
        </linearGradient>
        <path id="e" d="M10.812 0h60.164c2.6 0 4.708 2.108 4.708 4.708V81.09H26.332a4.708 4.708 0 0 1-4.708-4.708v-65.57C21.624 4.841 16.784 0 10.812 0z"/>
        <linearGradient id="g" x1="30.024%" x2="30.024%" y1="0%" y2="100%">
            <stop offset="0%" stop-color="#E9E9E9"/>
            <stop offset="91.028%" stop-color="#DDD"/>
            <stop offset="100%" stop-color="#EDEDED"/>
        </linearGradient>
        <linearGradient id="h" x1="0%" y1="50.574%" y2="49.426%">
            <stop offset="0%" stop-color="#EF394E"/>
            <stop offset="100%" stop-color="#FF848D"/>
        </linearGradient>
        <linearGradient id="i" x1="0%" y1="85.258%" y2="14.742%">
            <stop offset="0%" stop-color="#EF394E"/>
            <stop offset="100%" stop-color="#FF848D"/>
        </linearGradient>
    </defs>
    <g fill="none" fill-rule="evenodd">
        <path fill="url(#a)" d="M118.932 122.536l-.677.901h-86.72l29.138-.9z" filter="url(#b)"/>
        <path fill="url(#c)" d="M10.812 31.535c5.971 0 10.812 4.84 10.812 10.812V81.09H0V42.347c0-5.971 4.84-10.812 10.812-10.812z" transform="matrix(1 0 0 -1 45.05 135.15)"/>
        <g transform="matrix(1 0 0 -1 45.05 103.615)">
            <use fill="url(#d)" xlink:href="#e"/>
            <use fill="url(#f)" xlink:href="#e"/>
        </g>
        <path fill="url(#g)" d="M35.139 0h54.06v62.867c0 2.6-2.108 4.708-4.708 4.708h-56.56 1.715a5.493 5.493 0 0 0 5.493-5.493V0z" transform="matrix(1 0 0 -1 45.05 90.1)"/>
        <path fill="url(#h)" d="M49.555 50.456h25.228v2.703H49.555zM49.555 45.05h25.228v2.703H49.555z" transform="translate(45.05 22.525)"/>
        <path fill="url(#i)" d="M49.555 26.129A7.208 7.208 0 0 1 62.17 21.36a7.208 7.208 0 0 1 12.614 4.769c0 2.184-.978 4.21-2.577 5.521l-8.4 7.813a2.403 2.403 0 0 1-3.273 0l-8.387-7.799a7.194 7.194 0 0 1-2.59-5.535z" transform="translate(45.05 22.525)"/>
    </g>
</svg>
