<svg width="36" height="37" viewBox="0 0 36 37" fill="none" xmlns="http://www.w3.org/2000/svg">
<g clip-path="url(#clip0)">
<path d="M33.7217 15.4454C33.6493 15.4454 33.5813 15.4104 33.5392 15.3515L27.1803 6.44866C26.4554 5.43374 24.9885 5.32262 24.119 6.21678L15.797 14.7745C15.3835 15.1997 14.8028 15.4194 14.2114 15.3744L4.15172 14.6091C2.99072 14.5208 2 15.439 2 16.6034V30.557C2 31.6615 2.89543 32.557 4 32.557H31.9461C33.0507 32.557 33.9461 31.6615 33.9461 30.557V15.6698C33.9461 15.5459 33.8456 15.4454 33.7217 15.4454Z" fill="url(#paint0_linear)"/>
<path d="M25.5307 16.9111C26.9845 16.9111 28.163 15.7407 28.163 14.2969C28.163 12.8531 26.9845 11.6826 25.5307 11.6826C24.0769 11.6826 22.8984 12.8531 22.8984 14.2969C22.8984 15.7407 24.0769 16.9111 25.5307 16.9111Z" fill="white"/>
<path d="M28.3725 31.1082C28.3725 31.3769 28.1547 31.5947 27.886 31.5947H23.1159C22.8472 31.5947 22.6294 31.3769 22.6294 31.1082V23.2886C22.6294 21.8014 23.9156 20.5947 25.501 20.5947C27.0863 20.5947 28.3725 21.8014 28.3725 23.2886V31.1082Z" fill="white"/>
<path d="M8.91515 24.9695C8.91515 25.5068 8.47954 25.9424 7.94218 25.9424H6.4925C5.95515 25.9424 5.51953 25.5068 5.51953 24.9695V22.0436C5.51953 21.112 6.2793 20.3574 7.21734 20.3574C8.15538 20.3574 8.91515 21.112 8.91515 22.0436V24.9695Z" fill="white"/>
<path d="M15.0687 24.9695C15.0687 25.5068 14.6331 25.9424 14.0957 25.9424H12.6461C12.1087 25.9424 11.6731 25.5068 11.6731 24.9695V22.0436C11.6731 21.112 12.4329 20.3574 13.3709 20.3574C14.309 20.3574 15.0687 21.112 15.0687 22.0436V24.9695Z" fill="white"/>
<path d="M25.5308 11.6826V16.9111" stroke="#D2D2D2" stroke-width="0.486486" stroke-miterlimit="10"/>
<path d="M28.163 14.2969H22.8984" stroke="#D2D2D2" stroke-width="0.486486" stroke-miterlimit="10"/>
<path d="M17.2913 15.3116C17.1067 15.5433 16.8266 15.6782 16.5304 15.6782H1.73288C0.934538 15.6782 0.475956 14.7698 0.950061 14.1274L6.83895 6.14907C7.02238 5.90056 7.3129 5.75391 7.62178 5.75391H22.8886C23.7036 5.75391 24.1574 6.69591 23.6495 7.33326L17.2913 15.3116Z" fill="url(#paint1_linear)"/>
<path d="M27.1111 3.80466C26.3409 2.64929 24.6431 2.64929 23.8729 3.80466L16.3338 15.1132C15.7568 15.9788 16.3773 17.1381 17.4176 17.1381C17.8621 17.1381 18.276 16.9114 18.5152 16.5367L24.6493 6.93233C25.0425 6.3167 25.9416 6.31667 26.3348 6.93227L32.4701 16.537C32.7093 16.9115 33.123 17.1381 33.5673 17.1381C34.6072 17.1381 35.2275 15.9792 34.6506 15.1139L27.1111 3.80466Z" fill="url(#paint2_linear)"/>
</g>
<defs>
<linearGradient id="paint0_linear" x1="17.973" y1="4.5" x2="17.973" y2="32.557" gradientUnits="userSpaceOnUse">
<stop stop-color="#E7E7E7"/>
<stop offset="1" stop-color="#D0D0D0"/>
</linearGradient>
<linearGradient id="paint1_linear" x1="11.773" y1="5.75391" x2="11.773" y2="15.6782" gradientUnits="userSpaceOnUse">
<stop stop-color="#4696E3"/>
<stop offset="1" stop-color="#2C79C8"/>
</linearGradient>
<linearGradient id="paint2_linear" x1="25.492" y1="1.37598" x2="25.492" y2="17.1381" gradientUnits="userSpaceOnUse">
<stop stop-color="#4696E3"/>
<stop offset="1" stop-color="#2C79C8"/>
</linearGradient>
<clipPath id="clip0">
<rect y="0.5" width="36" height="36" fill="white"/>
</clipPath>
</defs>
</svg>
