<svg width="36" height="37" viewBox="0 0 36 37" fill="none" xmlns="http://www.w3.org/2000/svg">
<path d="M28.4159 33.5002H7.58389C4.72045 33.5002 2.3999 30.916 2.3999 27.7272V20.9559C2.3999 20.2629 2.90522 19.7002 3.52746 19.7002H32.4723C33.0946 19.7002 33.5999 20.2629 33.5999 20.9559V27.7272C33.5999 30.916 31.2794 33.5002 28.4159 33.5002Z" fill="url(#paint0_linear)"/>
<path d="M17.9173 8.96289C11.1006 8.96289 5.57349 14.4885 5.57349 21.3067C5.57349 28.1233 11.0991 33.6504 17.9173 33.6504C24.7354 33.6504 30.261 28.1248 30.261 21.3067C30.261 14.4885 24.7339 8.96289 17.9173 8.96289ZM17.9173 31.0091C12.5587 31.0091 8.21326 26.6652 8.21326 21.3051C8.21326 15.9466 12.5572 11.6011 17.9173 11.6011C23.2773 11.6011 27.6212 15.9451 27.6212 21.3051C27.6212 26.6652 23.2758 31.0091 17.9173 31.0091Z" fill="url(#paint1_linear)"/>
<path d="M17.9202 12.5203L24.739 5.91261L20.8775 1.7002H18.2711H17.8663H15.2614L11.3999 5.91261L18.2172 12.5203" fill="#E0E0E0"/>
<path d="M15.2614 1.7002H17.016L15.2614 5.91261H11.3999L15.2614 1.7002Z" fill="#ECECEC"/>
<path d="M20.8774 1.7002H19.1213L20.8774 5.91261H24.7388L20.8774 1.7002Z" fill="#E0E0E0"/>
<path d="M11.3999 5.91309H15.2614L18.0687 12.5819L11.3999 5.91309Z" fill="#E4E4E4"/>
<path d="M24.7389 5.91309H20.8774L18.0686 12.5819L24.7389 5.91309Z" fill="#D2D2D2"/>
<path d="M15.2615 5.91261H20.8775L19.1215 1.7002H17.016L15.2615 5.91261Z" fill="#E4E4E4"/>
<path d="M29.2859 34.6996H6.55613C3.43184 34.6996 0.899902 32.1677 0.899902 29.0434V22.409C0.899902 21.7301 1.45125 21.1787 2.13018 21.1787H33.7118C34.3907 21.1787 34.9421 21.7301 34.9421 22.409V29.0434C34.9421 32.1677 32.4102 34.6996 29.2859 34.6996Z" fill="url(#paint2_linear)"/>
<defs>
<linearGradient id="paint0_linear" x1="14.4999" y1="34.5002" x2="14.4999" y2="19.5002" gradientUnits="userSpaceOnUse">
<stop stop-color="#E7E7E7"/>
<stop offset="1" stop-color="#D0D0D0"/>
</linearGradient>
<linearGradient id="paint1_linear" x1="17.9173" y1="8.96289" x2="17.9173" y2="33.6504" gradientUnits="userSpaceOnUse">
<stop stop-color="#4696E3"/>
<stop offset="1" stop-color="#2C79C8"/>
</linearGradient>
<linearGradient id="paint2_linear" x1="32.4999" y1="21.4996" x2="0.999909" y2="34.4996" gradientUnits="userSpaceOnUse">
<stop stop-color="#E7E7E7"/>
<stop offset="1" stop-color="#D0D0D0"/>
</linearGradient>
</defs>
</svg>
